<?xml version="1.0" encoding="UTF-8" standalone="no"?>
<!-- Generator: Adobe Illustrator 22.0.1, SVG Export Plug-In . SVG Version: 6.00 Build 0)  -->

<svg
   xmlns:dc="http://purl.org/dc/elements/1.1/"
   xmlns:cc="http://creativecommons.org/ns#"
   xmlns:rdf="http://www.w3.org/1999/02/22-rdf-syntax-ns#"
   xmlns:svg="http://www.w3.org/2000/svg"
   xmlns="http://www.w3.org/2000/svg"
   xmlns:sodipodi="http://sodipodi.sourceforge.net/DTD/sodipodi-0.dtd"
   xmlns:inkscape="http://www.inkscape.org/namespaces/inkscape"
   version="1.1"
   id="Layer_1"
   x="0px"
   y="0px"
   viewBox="0 0 22.4 31.6"
   enable-background="new 0 0 60 60"
   xml:space="preserve"
   sodipodi:docname="download-file-icon.svg"
   width="22.4"
   height="31.6"
   inkscape:version="0.92.2 5c3e80d, 2017-08-06"><metadata
     id="metadata23"><rdf:RDF><cc:Work
         rdf:about=""><dc:format>image/svg+xml</dc:format><dc:type
           rdf:resource="http://purl.org/dc/dcmitype/StillImage" /></cc:Work></rdf:RDF></metadata><defs
     id="defs21" /><sodipodi:namedview
     pagecolor="#ffffff"
     bordercolor="#666666"
     borderopacity="1"
     objecttolerance="10"
     gridtolerance="10"
     guidetolerance="10"
     inkscape:pageopacity="0"
     inkscape:pageshadow="2"
     inkscape:window-width="1383"
     inkscape:window-height="889"
     id="namedview19"
     showgrid="false"
     inkscape:zoom="3.9333333"
     inkscape:cx="11.2"
     inkscape:cy="15.8"
     inkscape:window-x="224"
     inkscape:window-y="70"
     inkscape:window-maximized="0"
     inkscape:current-layer="Layer_1" /><polygon
     points="35.3,16 35.3,20.2 39.5,20.2 "
     id="polygon2"
     style="fill:none"
     transform="translate(-18.8,-14.2)" /><path
     d="M 3.5,5.6 H 2.5 1 C 0.4,5.6 0,6 0,6.6 v 3 c 0,0.6 0.4,1 1,1 h 1.5 1 9.5 v -5 z"
     id="path4"
     inkscape:connector-curvature="0"
     style="fill:#00768c" /><rect
     x="6.499999"
     y="13.599999"
     width="12"
     height="1.2"
     id="rect6"
     style="fill:#575756" /><rect
     x="6.499999"
     y="16.599998"
     width="12"
     height="1.2"
     id="rect8"
     style="fill:#575756" /><polygon
     points="26.8,40.2 31.3,45.8 35.8,40.2 33.8,40.2 33.8,34.8 28.8,34.8 28.8,40.2 "
     id="polygon10"
     style="fill:#00768c"
     transform="translate(-18.8,-14.2)" /><polygon
     points="35.3,16 35.3,20.2 39.5,20.2 "
     id="polygon12"
     style="fill:none"
     transform="translate(-18.8,-14.2)" /><path
     d="M 3.5,25 V 10.6 h -1 v 15 c 0,0.3 0.2,0.5 0.5,0.5 h 4 v -1 H 3.5 Z"
     id="path14"
     inkscape:connector-curvature="0"
     style="fill:#575756" /><path
     d="m 22.4,6.5 c 0,-0.1 0,-0.3 -0.1,-0.4 l -6,-6 C 16.2,0 16.1,0 15.9,0 V 0 H 2.9 C 2.6,0 2.4,0.2 2.4,0.5 v 5 h 1 V 1 h 12 v 5.5 c 0,0.3 0.2,0.5 0.5,0.5 h 5.5 v 18 h -3.5 v 1 h 4 c 0.3,0 0.5,-0.2 0.5,-0.5 z M 16.5,6 V 1.8 l 4.3,4.3 h -4.3 z"
     id="path16"
     inkscape:connector-curvature="0"
     style="fill:#575756" /></svg>