<?xml version="1.0" encoding="UTF-8" standalone="no"?>
<!-- Created with Inkscape (http://www.inkscape.org/) -->

<svg
   xmlns:dc="http://purl.org/dc/elements/1.1/"
   xmlns:cc="http://creativecommons.org/ns#"
   xmlns:rdf="http://www.w3.org/1999/02/22-rdf-syntax-ns#"
   xmlns:svg="http://www.w3.org/2000/svg"
   xmlns="http://www.w3.org/2000/svg"
   xmlns:sodipodi="http://sodipodi.sourceforge.net/DTD/sodipodi-0.dtd"
   xmlns:inkscape="http://www.inkscape.org/namespaces/inkscape"
   width="150.2865mm"
   height="22.930626mm"
   viewBox="0 0 150.2865 22.930626"
   version="1.1"
   id="svg5077"
   inkscape:version="0.92.2 5c3e80d, 2017-08-06"
   sodipodi:docname="eftec_logo.svg">
  <defs
     id="defs5071">
    <clipPath
       clipPathUnits="userSpaceOnUse"
       id="clipPath260">
      <path
         d="M 0,0 H 1920 V 3840 H 0 Z"
         id="path258"
         inkscape:connector-curvature="0" />
    </clipPath>
    <clipPath
       clipPathUnits="userSpaceOnUse"
       id="clipPath206">
      <path
         d="M 0,0 H 1920 V 3840 H 0 Z"
         id="path204"
         inkscape:connector-curvature="0" />
    </clipPath>
    <clipPath
       clipPathUnits="userSpaceOnUse"
       id="clipPath152">
      <path
         d="M 0,0 H 1920 V 3840 H 0 Z"
         id="path150"
         inkscape:connector-curvature="0" />
    </clipPath>
  </defs>
  <sodipodi:namedview
     id="base"
     pagecolor="#ffffff"
     bordercolor="#666666"
     borderopacity="1.0"
     inkscape:pageopacity="0.0"
     inkscape:pageshadow="2"
     inkscape:zoom="1.979899"
     inkscape:cx="306.86314"
     inkscape:cy="-53.809457"
     inkscape:document-units="mm"
     inkscape:current-layer="layer1"
     showgrid="false"
     inkscape:window-width="1860"
     inkscape:window-height="1035"
     inkscape:window-x="60"
     inkscape:window-y="1"
     inkscape:window-maximized="1" />
  <metadata
     id="metadata5074">
    <rdf:RDF>
      <cc:Work
         rdf:about="">
        <dc:format>image/svg+xml</dc:format>
        <dc:type
           rdf:resource="http://purl.org/dc/dcmitype/StillImage" />
        <dc:title></dc:title>
      </cc:Work>
    </rdf:RDF>
  </metadata>
  <g
     inkscape:label="Layer 1"
     inkscape:groupmode="layer"
     id="layer1"
     transform="translate(-24.642461,-111.66562)">
    <g
       transform="matrix(0.35277777,0,0,-0.35277777,-151.74653,1448.6933)"
       id="g146">
      <g
         id="g148"
         clip-path="url(#clipPath152)">
        <g
           id="g154"
           transform="translate(542.9323,3732.7886)">
          <path
             d="m 0,0 c -0.185,-0.185 -0.695,-0.695 -1.53,-1.529 -0.835,-0.835 -2.04,-1.716 -3.616,-2.644 -1.577,-0.927 -3.586,-1.761 -6.028,-2.503 -2.442,-0.741 -5.363,-1.113 -8.762,-1.113 -3.463,0 -6.616,0.589 -9.458,1.762 -2.844,1.174 -5.271,2.796 -7.279,4.869 -2.01,2.07 -3.555,4.558 -4.636,7.464 -1.083,2.905 -1.623,6.12 -1.623,9.643 0,3.214 0.54,6.197 1.623,8.948 1.081,2.75 2.596,5.146 4.543,7.186 1.948,2.04 4.265,3.647 6.954,4.822 2.69,1.174 5.671,1.762 8.949,1.762 3.955,0 7.309,-0.727 10.06,-2.179 2.75,-1.453 4.961,-3.355 6.63,-5.703 1.669,-2.35 2.874,-5.006 3.617,-7.974 0.741,-2.967 1.112,-5.997 1.112,-9.087 v -1.576 h -32.453 c 0,-1.608 0.354,-3.06 1.065,-4.359 0.71,-1.298 1.638,-2.411 2.782,-3.338 1.144,-0.927 2.441,-1.639 3.895,-2.133 1.452,-0.495 2.889,-0.741 4.312,-0.741 2.101,0 3.941,0.2 5.517,0.603 1.576,0.401 2.92,0.865 4.033,1.391 1.113,0.524 2.025,1.08 2.736,1.669 0.71,0.586 1.252,1.066 1.622,1.437 z m -10.664,20.03 c 0,1.112 -0.217,2.224 -0.649,3.338 -0.433,1.111 -1.066,2.116 -1.901,3.013 -0.834,0.895 -1.901,1.638 -3.198,2.225 -1.299,0.587 -2.782,0.881 -4.451,0.881 -1.794,0 -3.385,-0.294 -4.776,-0.881 -1.391,-0.587 -2.55,-1.33 -3.477,-2.225 -0.927,-0.897 -1.638,-1.902 -2.133,-3.013 -0.495,-1.114 -0.742,-2.226 -0.742,-3.338 z"
             style="fill:#00768c;fill-opacity:1;fill-rule:nonzero;stroke:none"
             id="path156"
             inkscape:connector-curvature="0" />
        </g>
        <g
           id="g158"
           transform="translate(552.8529,3761.0698)">
          <path
             d="M 0,0 H -7.418 V 8.902 H 0 v 2.689 c 0,3.153 0.494,5.825 1.484,8.021 0.988,2.194 2.256,3.987 3.801,5.378 1.545,1.391 3.276,2.395 5.193,3.013 1.916,0.618 3.802,0.927 5.657,0.927 1.977,0 4.172,-0.278 6.583,-0.834 2.411,-0.555 4.729,-1.793 6.954,-3.709 l -5.1,-7.232 c -0.989,0.679 -2.055,1.236 -3.199,1.669 -1.144,0.431 -2.303,0.649 -3.477,0.649 -2.165,0 -3.88,-0.696 -5.146,-2.087 -1.268,-1.391 -1.901,-3.384 -1.901,-5.98 V 8.902 h 11.22 V 0 H 10.942 V -34.586 H 0 Z"
             style="fill:#00768c;fill-opacity:1;fill-rule:nonzero;stroke:none"
             id="path160"
             inkscape:connector-curvature="0" />
        </g>
        <g
           id="g162"
           transform="translate(587.6249,3761.0698)">
          <path
             d="M 0,0 H -7.418 V 8.902 H 0 V 22.997 H 10.941 V 8.902 H 22.625 V 0 H 10.941 v -19.008 c 0,-2.473 0.418,-4.374 1.252,-5.702 0.834,-1.331 2.179,-1.994 4.033,-1.994 1.73,0 3.107,0.245 4.127,0.741 1.02,0.494 1.994,1.081 2.921,1.762 l 4.636,-6.769 c -2.164,-1.793 -4.297,-3.076 -6.398,-3.848 -2.102,-0.773 -4.451,-1.159 -7.047,-1.159 -2.659,0 -4.914,0.386 -6.769,1.159 -1.855,0.772 -3.354,1.87 -4.497,3.292 -1.145,1.421 -1.963,3.137 -2.458,5.147 C 0.246,-24.372 0,-22.161 0,-19.75 Z"
             style="fill:#00768c;fill-opacity:1;fill-rule:nonzero;stroke:none"
             id="path164"
             inkscape:connector-curvature="0" />
        </g>
        <g
           id="g166"
           transform="translate(659.3018,3732.7886)">
          <path
             d="m 0,0 c -0.185,-0.185 -0.695,-0.695 -1.53,-1.529 -0.835,-0.835 -2.04,-1.716 -3.616,-2.644 -1.577,-0.927 -3.587,-1.761 -6.028,-2.503 -2.442,-0.741 -5.363,-1.113 -8.762,-1.113 -3.463,0 -6.616,0.589 -9.458,1.762 -2.844,1.174 -5.271,2.796 -7.279,4.869 -2.01,2.07 -3.555,4.558 -4.636,7.464 -1.083,2.905 -1.623,6.12 -1.623,9.643 0,3.214 0.54,6.197 1.623,8.948 1.081,2.75 2.596,5.146 4.543,7.186 1.948,2.04 4.265,3.647 6.954,4.822 2.69,1.174 5.671,1.762 8.949,1.762 3.955,0 7.309,-0.727 10.06,-2.179 2.75,-1.453 4.961,-3.355 6.63,-5.703 1.669,-2.35 2.874,-5.006 3.616,-7.974 0.742,-2.967 1.113,-5.997 1.113,-9.087 v -1.576 h -32.454 c 0,-1.608 0.355,-3.06 1.066,-4.359 0.71,-1.298 1.638,-2.411 2.782,-3.338 1.143,-0.927 2.441,-1.639 3.895,-2.133 1.452,-0.495 2.888,-0.741 4.311,-0.741 2.102,0 3.941,0.2 5.518,0.603 1.576,0.401 2.92,0.865 4.033,1.391 1.113,0.524 2.024,1.08 2.736,1.669 0.71,0.586 1.252,1.066 1.622,1.437 z m -10.664,20.03 c 0,1.112 -0.217,2.224 -0.649,3.338 -0.433,1.111 -1.066,2.116 -1.901,3.013 -0.834,0.895 -1.901,1.638 -3.199,2.225 -1.298,0.587 -2.782,0.881 -4.45,0.881 -1.794,0 -3.385,-0.294 -4.776,-0.881 -1.391,-0.587 -2.55,-1.33 -3.477,-2.225 -0.927,-0.897 -1.638,-1.902 -2.133,-3.013 -0.495,-1.114 -0.742,-2.226 -0.742,-3.338 z"
             style="fill:#00768c;fill-opacity:1;fill-rule:nonzero;stroke:none"
             id="path168"
             inkscape:connector-curvature="0" />
        </g>
        <g
           id="g170"
           transform="translate(705.2003,3732.2329)">
          <path
             d="m 0,0 c -2.04,-2.165 -4.451,-3.895 -7.233,-5.193 -2.781,-1.298 -6.027,-1.947 -9.736,-1.947 -3.709,0 -7.017,0.556 -9.921,1.669 -2.907,1.113 -5.348,2.689 -7.325,4.729 -1.98,2.04 -3.494,4.481 -4.544,7.326 -1.052,2.842 -1.577,5.995 -1.577,9.458 0,3.152 0.571,6.133 1.716,8.948 1.143,2.812 2.735,5.268 4.775,7.371 2.04,2.1 4.497,3.769 7.372,5.007 2.874,1.236 6.042,1.855 9.504,1.855 3.524,0 6.737,-0.635 9.644,-1.902 2.904,-1.268 5.378,-2.983 7.417,-5.145 l -6.954,-7.048 c -1.237,1.421 -2.689,2.534 -4.358,3.338 -1.669,0.804 -3.586,1.206 -5.749,1.206 -2.102,0 -3.927,-0.387 -5.471,-1.16 -1.546,-0.773 -2.828,-1.777 -3.848,-3.013 -1.02,-1.237 -1.777,-2.689 -2.272,-4.358 -0.495,-1.669 -0.741,-3.37 -0.741,-5.099 0,-1.669 0.246,-3.308 0.741,-4.916 0.495,-1.607 1.252,-3.059 2.272,-4.357 1.02,-1.298 2.302,-2.351 3.848,-3.153 1.544,-0.804 3.369,-1.205 5.471,-1.205 2.163,0 4.141,0.417 5.935,1.251 1.792,0.835 3.306,1.962 4.543,3.385 z"
             style="fill:#00768c;fill-opacity:1;fill-rule:nonzero;stroke:none"
             id="path172"
             inkscape:connector-curvature="0" />
        </g>
        <g
           id="g174"
           transform="translate(736.0691,3754.1841)">
          <path
             d="m 0,0 c -0.152,-0.17 -0.378,-0.387 -0.68,-0.651 -0.302,-0.266 -0.694,-0.52 -1.176,-0.765 -0.481,-0.247 -1.048,-0.459 -1.699,-0.638 -0.653,-0.179 -1.394,-0.269 -2.225,-0.269 -1.02,0 -1.955,0.17 -2.805,0.51 -0.849,0.339 -1.577,0.821 -2.181,1.445 -0.605,0.623 -1.072,1.369 -1.402,2.238 -0.331,0.868 -0.497,1.831 -0.497,2.89 0,0.964 0.161,1.865 0.482,2.706 0.321,0.84 0.774,1.567 1.36,2.181 0.586,0.614 1.279,1.1 2.082,1.459 0.803,0.359 1.686,0.539 2.649,0.539 1.134,0 2.107,-0.218 2.919,-0.652 0.812,-0.435 1.478,-1.011 1.997,-1.728 C -0.656,8.547 -0.274,7.725 -0.028,6.8 0.217,5.875 0.34,4.911 0.34,3.91 h -10.398 c 0.019,-0.586 0.146,-1.124 0.383,-1.615 0.236,-0.491 0.552,-0.917 0.949,-1.275 0.396,-0.36 0.85,-0.643 1.36,-0.85 0.51,-0.208 1.048,-0.312 1.615,-0.312 1.114,0 2.03,0.189 2.748,0.567 0.717,0.377 1.237,0.746 1.558,1.104 z M -2.295,5.808 C -2.371,6.828 -2.73,7.697 -3.371,8.415 -4.014,9.132 -4.921,9.492 -6.092,9.492 -6.696,9.492 -7.239,9.387 -7.721,9.18 -8.202,8.972 -8.613,8.698 -8.953,8.358 -9.293,8.018 -9.558,7.625 -9.746,7.183 -9.935,6.739 -10.039,6.28 -10.058,5.808 Z"
             style="fill:#00768c;fill-opacity:1;fill-rule:nonzero;stroke:none"
             id="path176"
             inkscape:connector-curvature="0" />
        </g>
        <g
           id="g178"
           transform="translate(750.6889,3754.0708)">
          <path
             d="m 0,0 c -0.585,-0.661 -1.308,-1.195 -2.168,-1.601 -0.859,-0.406 -1.855,-0.608 -2.988,-0.608 -1.059,0 -2.017,0.174 -2.876,0.522 -0.86,0.35 -1.587,0.832 -2.182,1.446 -0.595,0.614 -1.053,1.35 -1.374,2.209 -0.321,0.861 -0.482,1.8 -0.482,2.82 0,0.963 0.171,1.87 0.51,2.72 0.34,0.851 0.817,1.591 1.431,2.224 0.613,0.633 1.341,1.133 2.182,1.502 0.84,0.368 1.771,0.552 2.791,0.552 1.114,0 2.096,-0.198 2.946,-0.595 0.85,-0.396 1.577,-0.935 2.182,-1.615 L -1.7,7.961 C -2.097,8.453 -2.578,8.84 -3.145,9.123 -3.711,9.406 -4.382,9.548 -5.156,9.548 -5.836,9.548 -6.445,9.42 -6.984,9.166 -7.522,8.911 -7.976,8.561 -8.344,8.117 -8.713,7.673 -8.995,7.164 -9.194,6.588 -9.392,6.011 -9.492,5.412 -9.492,4.788 c 0,-0.605 0.1,-1.195 0.298,-1.771 0.199,-0.576 0.481,-1.086 0.85,-1.529 0.368,-0.445 0.822,-0.799 1.36,-1.063 0.539,-0.265 1.148,-0.397 1.828,-0.397 0.774,0 1.468,0.146 2.082,0.44 0.613,0.292 1.119,0.684 1.516,1.175 z"
             style="fill:#00768c;fill-opacity:1;fill-rule:nonzero;stroke:none"
             id="path180"
             inkscape:connector-curvature="0" />
        </g>
        <g
           id="g182"
           transform="translate(758.7631,3751.8613)">
          <path
             d="M 0,0 C -1.02,0 -1.955,0.184 -2.805,0.552 -3.655,0.92 -4.387,1.425 -5,2.067 -5.615,2.71 -6.096,3.451 -6.446,4.292 -6.795,5.132 -6.97,6.034 -6.97,6.998 c 0,0.963 0.175,1.865 0.524,2.705 0.35,0.841 0.831,1.582 1.446,2.225 0.613,0.641 1.345,1.147 2.195,1.515 0.85,0.369 1.785,0.552 2.805,0.552 1.001,0 1.927,-0.183 2.777,-0.552 0.85,-0.368 1.587,-0.874 2.21,-1.515 C 5.61,11.285 6.096,10.544 6.446,9.703 6.795,8.863 6.97,7.961 6.97,6.998 6.97,6.034 6.795,5.132 6.446,4.292 6.096,3.451 5.61,2.71 4.987,2.067 4.364,1.425 3.627,0.92 2.777,0.552 1.927,0.184 1.001,0 0,0 m 0,2.209 c 0.68,0 1.294,0.138 1.842,0.411 0.548,0.274 1.01,0.632 1.388,1.078 0.378,0.442 0.666,0.953 0.864,1.529 0.198,0.576 0.298,1.166 0.298,1.771 0,0.585 -0.1,1.166 -0.298,1.742 C 3.896,9.315 3.603,9.831 3.216,10.284 2.829,10.738 2.366,11.101 1.827,11.375 1.289,11.648 0.68,11.786 0,11.786 c -0.68,0 -1.294,-0.138 -1.842,-0.411 C -2.39,11.101 -2.852,10.742 -3.23,10.299 -3.608,9.854 -3.896,9.344 -4.094,8.769 -4.292,8.192 -4.392,7.603 -4.392,6.998 c 0,-0.605 0.1,-1.19 0.298,-1.757 0.198,-0.566 0.491,-1.077 0.878,-1.53 C -2.829,3.257 -2.366,2.894 -1.827,2.62 -1.289,2.347 -0.68,2.209 0,2.209"
             style="fill:#00768c;fill-opacity:1;fill-rule:nonzero;stroke:none"
             id="path184"
             inkscape:connector-curvature="0" />
        </g>
        <g
           id="g186"
           transform="translate(768.6227,3752.2573)">
          <path
             d="m 0,0 v 11.814 0.525 c 0,0.18 -0.01,0.458 -0.028,0.836 h 2.436 l 0.085,-1.983 c 0.171,0.226 0.378,0.477 0.624,0.751 0.245,0.273 0.547,0.523 0.906,0.751 0.359,0.226 0.779,0.415 1.261,0.566 0.482,0.151 1.024,0.226 1.629,0.226 1.719,0 2.994,-0.501 3.825,-1.502 0.831,-1.001 1.247,-2.36 1.247,-4.079 V 0 h -2.55 v 7.707 c 0,1.228 -0.265,2.129 -0.793,2.705 -0.529,0.576 -1.275,0.864 -2.239,0.864 -0.736,0 -1.35,-0.151 -1.842,-0.452 C 4.07,10.521 3.679,10.129 3.386,9.648 3.093,9.166 2.881,8.618 2.748,8.004 2.616,7.39 2.55,6.761 2.55,6.12 V 0 Z"
             style="fill:#00768c;fill-opacity:1;fill-rule:nonzero;stroke:none"
             id="path188"
             inkscape:connector-curvature="0" />
        </g>
        <g
           id="g190"
           transform="translate(790.382,3751.8613)">
          <path
             d="M 0,0 C -1.02,0 -1.955,0.184 -2.805,0.552 -3.655,0.92 -4.387,1.425 -5,2.067 -5.615,2.71 -6.096,3.451 -6.445,4.292 c -0.35,0.84 -0.525,1.742 -0.525,2.706 0,0.963 0.175,1.865 0.525,2.705 0.349,0.841 0.83,1.582 1.445,2.225 0.613,0.641 1.345,1.147 2.195,1.515 0.85,0.369 1.785,0.552 2.805,0.552 1.001,0 1.927,-0.183 2.777,-0.552 0.85,-0.368 1.587,-0.874 2.21,-1.515 C 5.61,11.285 6.096,10.544 6.446,9.703 6.795,8.863 6.97,7.961 6.97,6.998 6.97,6.034 6.795,5.132 6.446,4.292 6.096,3.451 5.61,2.71 4.987,2.067 4.364,1.425 3.627,0.92 2.777,0.552 1.927,0.184 1.001,0 0,0 m 0,2.209 c 0.68,0 1.294,0.138 1.842,0.411 C 2.39,2.894 2.852,3.252 3.23,3.698 3.608,4.14 3.896,4.651 4.094,5.227 4.293,5.803 4.392,6.393 4.392,6.998 4.392,7.583 4.293,8.164 4.094,8.74 3.896,9.315 3.603,9.831 3.216,10.284 2.829,10.738 2.366,11.101 1.827,11.375 1.289,11.648 0.68,11.786 0,11.786 c -0.68,0 -1.294,-0.138 -1.842,-0.411 C -2.389,11.101 -2.852,10.742 -3.23,10.299 -3.608,9.854 -3.896,9.344 -4.094,8.769 -4.292,8.192 -4.392,7.603 -4.392,6.998 c 0,-0.605 0.1,-1.19 0.298,-1.757 0.198,-0.566 0.491,-1.077 0.878,-1.53 C -2.829,3.257 -2.366,2.894 -1.827,2.62 -1.289,2.347 -0.68,2.209 0,2.209"
             style="fill:#00768c;fill-opacity:1;fill-rule:nonzero;stroke:none"
             id="path192"
             inkscape:connector-curvature="0" />
        </g>
        <g
           id="g194"
           transform="translate(800.2416,3752.2573)">
          <path
             d="m 0,0 v 11.814 0.525 c 0,0.18 -0.009,0.458 -0.028,0.836 h 2.436 l 0.085,-1.983 c 0.151,0.226 0.35,0.477 0.596,0.751 0.245,0.273 0.538,0.523 0.878,0.751 0.34,0.226 0.741,0.415 1.204,0.566 0.463,0.151 0.996,0.226 1.601,0.226 1.02,0 1.865,-0.202 2.535,-0.609 0.671,-0.406 1.195,-0.996 1.573,-1.771 0.529,0.624 1.176,1.176 1.941,1.658 0.765,0.482 1.714,0.722 2.847,0.722 1.7,0 2.956,-0.506 3.769,-1.515 0.811,-1.012 1.218,-2.366 1.218,-4.066 V 0 h -2.55 v 7.707 c 0,1.228 -0.241,2.129 -0.723,2.705 -0.481,0.576 -1.185,0.864 -2.11,0.864 -0.53,0 -1.016,-0.108 -1.46,-0.325 C 13.368,10.733 12.981,10.445 12.651,10.086 12.32,9.727 12.065,9.307 11.886,8.825 11.706,8.344 11.616,7.839 11.616,7.31 V 0 h -2.55 v 7.707 c 0,1.228 -0.24,2.129 -0.722,2.705 -0.481,0.576 -1.175,0.864 -2.082,0.864 -0.699,0 -1.285,-0.151 -1.757,-0.452 C 4.033,10.521 3.65,10.129 3.358,9.648 3.065,9.166 2.857,8.614 2.734,7.99 2.612,7.366 2.551,6.744 2.551,6.12 V 0 Z"
             style="fill:#00768c;fill-opacity:1;fill-rule:nonzero;stroke:none"
             id="path196"
             inkscape:connector-curvature="0" />
        </g>
      </g>
    </g>
    <path
       d="m 139.03654,118.4932 h 1.00965 v 1.01001 h -1.00965 z m 0.0603,1.83904 h 0.89958 v 4.64784 h -0.89958 z"
       style="fill:#00768c;fill-opacity:1;fill-rule:nonzero;stroke:none;stroke-width:0.35277775"
       id="path198"
       inkscape:connector-curvature="0" />
    <g
       transform="matrix(0.35277777,0,0,-0.35277777,-151.74653,1448.6933)"
       id="g200">
      <g
         id="g202"
         clip-path="url(#clipPath206)">
        <g
           id="g208"
           transform="translate(842.0603,3754.0708)">
          <path
             d="m 0,0 c -0.585,-0.661 -1.308,-1.195 -2.168,-1.601 -0.859,-0.406 -1.855,-0.608 -2.988,-0.608 -1.059,0 -2.017,0.174 -2.876,0.522 -0.86,0.35 -1.587,0.832 -2.182,1.446 -0.595,0.614 -1.053,1.35 -1.374,2.209 -0.322,0.861 -0.482,1.8 -0.482,2.82 0,0.963 0.17,1.87 0.51,2.72 0.34,0.851 0.817,1.591 1.431,2.224 0.613,0.633 1.341,1.133 2.182,1.502 0.84,0.368 1.771,0.552 2.791,0.552 1.114,0 2.096,-0.198 2.946,-0.595 0.85,-0.396 1.577,-0.935 2.182,-1.615 L -1.7,7.961 C -2.097,8.453 -2.578,8.84 -3.145,9.123 -3.711,9.406 -4.382,9.548 -5.156,9.548 -5.836,9.548 -6.446,9.42 -6.984,9.166 -7.522,8.911 -7.976,8.561 -8.344,8.117 -8.712,7.673 -8.996,7.164 -9.194,6.588 -9.392,6.011 -9.492,5.412 -9.492,4.788 c 0,-0.605 0.1,-1.195 0.298,-1.771 0.198,-0.576 0.482,-1.086 0.85,-1.529 0.368,-0.445 0.822,-0.799 1.36,-1.063 0.538,-0.265 1.148,-0.397 1.828,-0.397 0.774,0 1.468,0.146 2.082,0.44 0.613,0.292 1.119,0.684 1.516,1.175 z"
             style="fill:#00768c;fill-opacity:1;fill-rule:nonzero;stroke:none"
             id="path210"
             inkscape:connector-curvature="0" />
        </g>
        <g
           id="g212"
           transform="translate(845.4315,3755.5728)">
          <path
             d="m 0,0 c 0.472,-0.473 1.039,-0.85 1.7,-1.133 0.661,-0.284 1.426,-0.425 2.295,-0.425 0.85,0 1.558,0.137 2.125,0.41 0.566,0.274 0.85,0.704 0.85,1.289 C 6.97,0.443 6.908,0.703 6.786,0.92 6.662,1.137 6.455,1.332 6.162,1.501 5.87,1.671 5.482,1.827 5.001,1.968 4.519,2.11 3.919,2.266 3.201,2.436 2.691,2.549 2.186,2.7 1.686,2.89 1.185,3.079 0.737,3.329 0.34,3.641 c -0.397,0.31 -0.718,0.689 -0.963,1.133 -0.246,0.443 -0.369,0.977 -0.369,1.601 0,0.641 0.147,1.204 0.44,1.685 0.292,0.482 0.684,0.888 1.175,1.219 0.491,0.329 1.044,0.581 1.658,0.751 0.613,0.17 1.251,0.254 1.912,0.254 1.114,0 2.073,-0.146 2.876,-0.439 C 7.872,9.552 8.575,9.142 9.18,8.612 L 7.792,6.857 C 7.395,7.215 6.899,7.517 6.304,7.762 5.709,8.007 5.015,8.131 4.221,8.131 3.409,8.131 2.757,7.999 2.267,7.734 1.775,7.469 1.53,7.035 1.53,6.432 1.53,5.864 1.856,5.444 2.508,5.17 3.159,4.896 4.014,4.637 5.072,4.392 5.695,4.24 6.276,4.066 6.814,3.867 7.352,3.668 7.824,3.413 8.231,3.103 8.636,2.791 8.958,2.408 9.194,1.954 9.43,1.501 9.548,0.953 9.548,0.312 9.548,-0.35 9.397,-0.931 9.095,-1.431 8.792,-1.932 8.387,-2.352 7.877,-2.691 7.367,-3.032 6.781,-3.286 6.12,-3.458 5.458,-3.627 4.769,-3.711 4.052,-3.711 c -2.494,0 -4.363,0.67 -5.61,2.011 z"
             style="fill:#00768c;fill-opacity:1;fill-rule:nonzero;stroke:none"
             id="path214"
             inkscape:connector-curvature="0" />
        </g>
        <g
           id="g216"
           transform="translate(864.0732,3763.3071)">
          <path
             d="M 0,0 H -2.38 V 2.125 H 0 v 1.077 c 0,0.887 0.128,1.656 0.384,2.309 0.254,0.652 0.594,1.185 1.02,1.6 0.425,0.416 0.91,0.723 1.458,0.922 C 3.409,8.23 3.986,8.33 4.59,8.33 5.288,8.33 5.974,8.222 6.644,8.004 7.314,7.786 7.933,7.414 8.5,6.885 L 7.225,5.242 C 6.526,5.827 5.78,6.12 4.987,6.12 4.251,6.12 3.66,5.884 3.216,5.412 2.772,4.939 2.55,4.126 2.55,2.975 V 2.125 H 6.318 V 0 H 2.55 V -11.05 H 0 Z"
             style="fill:#00768c;fill-opacity:1;fill-rule:nonzero;stroke:none"
             id="path218"
             inkscape:connector-curvature="0" />
        </g>
        <g
           id="g220"
           transform="translate(878.2119,3751.8613)">
          <path
             d="M 0,0 C -1.02,0 -1.954,0.184 -2.805,0.552 -3.655,0.92 -4.387,1.425 -5,2.067 -5.614,2.71 -6.096,3.451 -6.446,4.292 -6.795,5.132 -6.97,6.034 -6.97,6.998 c 0,0.963 0.175,1.865 0.524,2.705 0.35,0.841 0.832,1.582 1.446,2.225 0.613,0.641 1.345,1.147 2.195,1.515 0.851,0.369 1.785,0.552 2.805,0.552 1.001,0 1.927,-0.183 2.777,-0.552 0.85,-0.368 1.587,-0.874 2.21,-1.515 C 5.61,11.285 6.096,10.544 6.446,9.703 6.795,8.863 6.97,7.961 6.97,6.998 6.97,6.034 6.795,5.132 6.446,4.292 6.096,3.451 5.61,2.71 4.987,2.067 4.364,1.425 3.627,0.92 2.777,0.552 1.927,0.184 1.001,0 0,0 m 0,2.209 c 0.68,0 1.294,0.138 1.842,0.411 0.548,0.274 1.01,0.632 1.388,1.078 0.378,0.442 0.666,0.953 0.865,1.529 0.197,0.576 0.297,1.166 0.297,1.771 0,0.585 -0.1,1.166 -0.297,1.742 C 3.896,9.315 3.603,9.831 3.216,10.284 2.828,10.738 2.366,11.101 1.827,11.375 1.289,11.648 0.68,11.786 0,11.786 c -0.679,0 -1.294,-0.138 -1.841,-0.411 C -2.39,11.101 -2.852,10.742 -3.23,10.299 -3.608,9.854 -3.895,9.344 -4.094,8.769 -4.292,8.192 -4.392,7.603 -4.392,6.998 c 0,-0.605 0.1,-1.19 0.298,-1.757 0.199,-0.566 0.491,-1.077 0.878,-1.53 C -2.828,3.257 -2.366,2.894 -1.827,2.62 -1.289,2.347 -0.679,2.209 0,2.209"
             style="fill:#00768c;fill-opacity:1;fill-rule:nonzero;stroke:none"
             id="path222"
             inkscape:connector-curvature="0" />
        </g>
        <g
           id="g224"
           transform="translate(888.072,3752.2573)">
          <path
             d="m 0,0 v 11.9 0.453 c 0,0.17 -0.01,0.444 -0.029,0.822 H 2.408 L 2.493,11.05 c 0.151,0.226 0.349,0.477 0.596,0.751 0.245,0.273 0.543,0.524 0.893,0.751 0.349,0.226 0.754,0.42 1.217,0.581 0.463,0.159 0.996,0.24 1.6,0.24 0.284,0 0.543,-0.019 0.78,-0.057 0.236,-0.037 0.458,-0.094 0.666,-0.17 L 7.679,10.767 C 7.337,10.899 6.905,10.964 6.376,10.964 5.828,10.964 5.322,10.861 4.86,10.654 4.397,10.445 3.994,10.157 3.655,9.789 3.315,9.421 3.046,8.991 2.847,8.5 2.649,8.009 2.551,7.49 2.551,6.941 V 0 Z"
             style="fill:#00768c;fill-opacity:1;fill-rule:nonzero;stroke:none"
             id="path226"
             inkscape:connector-curvature="0" />
        </g>
        <g
           id="g228"
           transform="translate(725.1898,3737.5503)">
          <path
             d="M 0,0 H -2.38 V 2.125 H 0 V 6.432 H 2.55 V 2.125 H 6.403 V 0 H 2.55 v -6.488 c 0,-1.058 0.165,-1.785 0.495,-2.182 0.33,-0.396 0.798,-0.595 1.403,-0.595 0.491,0 0.897,0.075 1.218,0.226 0.321,0.152 0.642,0.379 0.964,0.681 l 1.161,-1.559 c -0.548,-0.529 -1.11,-0.912 -1.686,-1.147 -0.576,-0.236 -1.261,-0.354 -2.054,-0.354 -1.398,0 -2.422,0.377 -3.074,1.133 C 0.326,-9.529 0,-8.348 0,-6.744 Z"
             style="fill:#00768c;fill-opacity:1;fill-rule:nonzero;stroke:none"
             id="path230"
             inkscape:connector-curvature="0" />
        </g>
        <g
           id="g232"
           transform="translate(734.9071,3745.3979)">
          <path
             d="m 0,0 h 2.522 v -7.678 c 0.17,0.226 0.377,0.472 0.623,0.737 0.246,0.264 0.548,0.509 0.907,0.737 0.359,0.226 0.774,0.415 1.246,0.566 0.472,0.151 1.01,0.226 1.615,0.226 1.719,0 2.994,-0.5 3.826,-1.501 0.83,-1.001 1.246,-2.361 1.246,-4.08 v -7.904 h -2.55 v 7.707 c 0,1.227 -0.265,2.129 -0.794,2.705 -0.528,0.576 -1.274,0.864 -2.238,0.864 -0.736,0 -1.35,-0.151 -1.841,-0.453 C 4.07,-8.377 3.679,-8.768 3.386,-9.25 3.093,-9.732 2.881,-10.28 2.749,-10.894 2.616,-11.507 2.55,-12.136 2.55,-12.778 v -6.119 H 0 Z"
             style="fill:#00768c;fill-opacity:1;fill-rule:nonzero;stroke:none"
             id="path234"
             inkscape:connector-curvature="0" />
        </g>
        <g
           id="g236"
           transform="translate(762.333,3728.4272)">
          <path
             d="m 0,0 c -0.152,-0.17 -0.378,-0.387 -0.68,-0.652 -0.302,-0.265 -0.694,-0.519 -1.176,-0.764 -0.481,-0.247 -1.048,-0.459 -1.699,-0.638 -0.653,-0.18 -1.394,-0.269 -2.225,-0.269 -1.02,0 -1.955,0.17 -2.805,0.51 -0.849,0.339 -1.577,0.821 -2.181,1.444 -0.605,0.624 -1.072,1.37 -1.403,2.239 -0.33,0.868 -0.496,1.831 -0.496,2.89 0,0.964 0.161,1.865 0.482,2.705 0.321,0.841 0.774,1.567 1.36,2.182 0.586,0.614 1.279,1.1 2.082,1.459 0.803,0.359 1.686,0.539 2.65,0.539 1.133,0 2.105,-0.218 2.918,-0.652 0.812,-0.435 1.478,-1.011 1.997,-1.728 C -0.656,8.547 -0.274,7.725 -0.028,6.8 0.217,5.875 0.34,4.911 0.34,3.91 h -10.398 c 0.019,-0.586 0.146,-1.124 0.383,-1.615 0.236,-0.492 0.552,-0.917 0.949,-1.275 0.396,-0.36 0.85,-0.643 1.36,-0.85 0.51,-0.208 1.048,-0.312 1.615,-0.312 1.114,0 2.03,0.188 2.748,0.567 0.717,0.377 1.237,0.746 1.558,1.104 z m -2.295,5.808 c -0.076,1.02 -0.435,1.889 -1.076,2.607 -0.643,0.717 -1.55,1.076 -2.72,1.076 -0.605,0 -1.148,-0.104 -1.63,-0.311 C -8.202,8.972 -8.613,8.698 -8.953,8.358 -9.293,8.018 -9.558,7.625 -9.746,7.182 -9.936,6.739 -10.039,6.279 -10.058,5.808 Z"
             style="fill:#00768c;fill-opacity:1;fill-rule:nonzero;stroke:none"
             id="path238"
             inkscape:connector-curvature="0" />
        </g>
        <g
           id="g240"
           transform="translate(782.6475,3728.4272)">
          <path
             d="m 0,0 c -0.152,-0.17 -0.378,-0.387 -0.68,-0.652 -0.302,-0.265 -0.694,-0.519 -1.176,-0.764 -0.481,-0.247 -1.048,-0.459 -1.699,-0.638 -0.653,-0.18 -1.394,-0.269 -2.225,-0.269 -1.02,0 -1.955,0.17 -2.805,0.51 -0.849,0.339 -1.577,0.821 -2.181,1.444 -0.605,0.624 -1.072,1.37 -1.403,2.239 -0.33,0.868 -0.496,1.831 -0.496,2.89 0,0.964 0.161,1.865 0.482,2.705 0.321,0.841 0.774,1.567 1.36,2.182 0.586,0.614 1.279,1.1 2.082,1.459 0.803,0.359 1.686,0.539 2.649,0.539 1.134,0 2.106,-0.218 2.919,-0.652 0.812,-0.435 1.478,-1.011 1.997,-1.728 C -0.657,8.547 -0.274,7.725 -0.028,6.8 0.217,5.875 0.34,4.911 0.34,3.91 h -10.398 c 0.019,-0.586 0.146,-1.124 0.383,-1.615 0.236,-0.492 0.552,-0.917 0.949,-1.275 0.396,-0.36 0.85,-0.643 1.36,-0.85 0.51,-0.208 1.048,-0.312 1.615,-0.312 1.114,0 2.03,0.188 2.748,0.567 0.717,0.377 1.237,0.746 1.558,1.104 z M -2.295,5.808 C -2.371,6.828 -2.73,7.697 -3.371,8.415 -4.014,9.132 -4.921,9.491 -6.092,9.491 -6.696,9.491 -7.239,9.387 -7.721,9.18 -8.202,8.972 -8.613,8.698 -8.953,8.358 -9.293,8.018 -9.558,7.625 -9.746,7.182 -9.936,6.739 -10.039,6.279 -10.058,5.808 Z"
             style="fill:#00768c;fill-opacity:1;fill-rule:nonzero;stroke:none"
             id="path242"
             inkscape:connector-curvature="0" />
        </g>
        <g
           id="g244"
           transform="translate(785.8206,3726.5005)">
          <path
             d="m 0,0 v 11.814 0.525 c 0,0.18 -0.01,0.458 -0.028,0.836 h 2.436 l 0.085,-1.983 c 0.171,0.226 0.378,0.476 0.624,0.751 0.245,0.273 0.547,0.523 0.906,0.75 0.359,0.227 0.779,0.415 1.261,0.567 0.482,0.15 1.024,0.226 1.629,0.226 1.719,0 2.994,-0.501 3.825,-1.502 0.831,-1.001 1.247,-2.36 1.247,-4.08 V 0 h -2.55 v 7.707 c 0,1.227 -0.265,2.129 -0.793,2.705 -0.529,0.576 -1.275,0.864 -2.239,0.864 -0.736,0 -1.35,-0.151 -1.842,-0.453 C 4.07,10.52 3.679,10.129 3.386,9.647 3.093,9.166 2.881,8.617 2.748,8.004 2.616,7.39 2.55,6.761 2.55,6.12 V 0 Z"
             style="fill:#00768c;fill-opacity:1;fill-rule:nonzero;stroke:none"
             id="path246"
             inkscape:connector-curvature="0" />
        </g>
      </g>
    </g>
    <g
       id="g248"
       transform="matrix(0.35277777,0,0,-0.35277777,130.15119,129.4188)">
      <path
         d="M 0,0 H 2.918 L 7.026,-10.285 11.106,0 h 2.749 L 8.217,-13.175 h -2.55 z"
         style="fill:#00768c;fill-opacity:1;fill-rule:nonzero;stroke:none"
         id="path250"
         inkscape:connector-curvature="0" />
    </g>
    <path
       d="m 135.70844,127.5797 h 1.00965 v 1.00965 h -1.00965 z m 0.06,1.83903 h 0.89958 v 4.64785 h -0.89958 z"
       style="fill:#00768c;fill-opacity:1;fill-rule:nonzero;stroke:none;stroke-width:0.35277775"
       id="path252"
       inkscape:connector-curvature="0" />
    <g
       transform="matrix(0.35277777,0,0,-0.35277777,-151.74653,1448.6933)"
       id="g254">
      <g
         id="g256"
         clip-path="url(#clipPath260)">
        <g
           id="g262"
           transform="translate(821.1792,3726.5005)">
          <path
             d="m 0,0 v 11.9 0.453 c 0,0.169 -0.009,0.444 -0.028,0.822 H 2.408 L 2.493,11.05 c 0.151,0.226 0.35,0.476 0.596,0.751 0.245,0.272 0.542,0.524 0.892,0.75 0.349,0.227 0.755,0.42 1.218,0.581 0.463,0.16 0.996,0.241 1.601,0.241 0.283,0 0.543,-0.019 0.779,-0.057 0.236,-0.038 0.458,-0.094 0.666,-0.17 L 7.679,10.767 c -0.34,0.132 -0.775,0.197 -1.304,0.197 -0.548,0 -1.053,-0.103 -1.515,-0.31 C 4.396,10.445 3.995,10.157 3.655,9.788 3.315,9.421 3.046,8.991 2.848,8.499 2.649,8.009 2.551,7.489 2.551,6.941 V 0 Z"
             style="fill:#00768c;fill-opacity:1;fill-rule:nonzero;stroke:none"
             id="path264"
             inkscape:connector-curvature="0" />
        </g>
        <g
           id="g266"
           transform="translate(837.1309,3726.1042)">
          <path
             d="m 0,0 c -1.02,0 -1.955,0.184 -2.805,0.552 -0.85,0.369 -1.582,0.873 -2.196,1.516 -0.614,0.642 -1.096,1.383 -1.445,2.224 -0.349,0.841 -0.524,1.742 -0.524,2.706 0,0.963 0.175,1.865 0.524,2.705 0.349,0.841 0.831,1.582 1.445,2.225 0.614,0.641 1.346,1.147 2.196,1.515 0.85,0.369 1.785,0.552 2.805,0.552 1.001,0 1.927,-0.183 2.777,-0.552 0.849,-0.368 1.586,-0.874 2.21,-1.515 C 5.61,11.285 6.096,10.544 6.445,9.703 6.795,8.863 6.97,7.961 6.97,6.998 6.97,6.034 6.795,5.133 6.445,4.292 6.096,3.451 5.61,2.71 4.987,2.068 4.363,1.425 3.626,0.921 2.777,0.552 1.927,0.184 1.001,0 0,0 m 0,2.21 c 0.68,0 1.293,0.137 1.842,0.41 0.547,0.274 1.01,0.632 1.388,1.078 0.377,0.442 0.666,0.953 0.864,1.529 0.198,0.576 0.298,1.166 0.298,1.771 0,0.584 -0.1,1.165 -0.298,1.742 C 3.896,9.316 3.602,9.831 3.216,10.284 2.828,10.738 2.366,11.101 1.827,11.376 1.289,11.648 0.68,11.785 0,11.785 c -0.68,0 -1.294,-0.137 -1.842,-0.409 C -2.39,11.101 -2.852,10.742 -3.23,10.299 -3.608,9.854 -3.896,9.344 -4.094,8.768 -4.293,8.192 -4.392,7.603 -4.392,6.998 c 0,-0.605 0.099,-1.19 0.298,-1.757 0.198,-0.566 0.491,-1.077 0.878,-1.53 C -2.829,3.257 -2.366,2.894 -1.827,2.62 -1.289,2.347 -0.68,2.21 0,2.21"
             style="fill:#00768c;fill-opacity:1;fill-rule:nonzero;stroke:none"
             id="path268"
             inkscape:connector-curvature="0" />
        </g>
        <g
           id="g270"
           transform="translate(846.9904,3726.5005)">
          <path
             d="m 0,0 v 11.814 0.525 c 0,0.18 -0.009,0.458 -0.028,0.836 h 2.436 l 0.085,-1.983 c 0.171,0.226 0.378,0.476 0.624,0.751 0.245,0.273 0.547,0.523 0.906,0.75 0.359,0.227 0.779,0.415 1.261,0.567 0.482,0.15 1.024,0.226 1.629,0.226 1.719,0 2.994,-0.501 3.825,-1.502 0.831,-1.001 1.246,-2.36 1.246,-4.08 V 0 H 9.435 v 7.707 c 0,1.227 -0.265,2.129 -0.793,2.705 -0.53,0.576 -1.275,0.864 -2.239,0.864 -0.736,0 -1.35,-0.151 -1.841,-0.453 C 4.07,10.52 3.679,10.129 3.386,9.647 3.093,9.166 2.881,8.617 2.749,8.004 2.616,7.39 2.551,6.761 2.551,6.12 V 0 Z"
             style="fill:#00768c;fill-opacity:1;fill-rule:nonzero;stroke:none"
             id="path272"
             inkscape:connector-curvature="0" />
        </g>
        <g
           id="g274"
           transform="translate(862.403,3726.5005)">
          <path
             d="m 0,0 v 11.814 0.525 c 0,0.18 -0.01,0.458 -0.029,0.836 h 2.437 l 0.085,-1.983 c 0.151,0.226 0.349,0.476 0.596,0.751 0.245,0.273 0.538,0.523 0.878,0.75 0.339,0.227 0.74,0.415 1.203,0.567 0.463,0.15 0.996,0.226 1.601,0.226 1.02,0 1.865,-0.203 2.536,-0.609 0.67,-0.406 1.195,-0.996 1.573,-1.771 0.528,0.624 1.176,1.176 1.941,1.658 0.764,0.482 1.714,0.722 2.847,0.722 1.7,0 2.955,-0.506 3.768,-1.516 0.812,-1.011 1.219,-2.365 1.219,-4.066 V 0 h -2.551 v 7.707 c 0,1.227 -0.24,2.129 -0.722,2.705 -0.481,0.576 -1.186,0.864 -2.11,0.864 -0.53,0 -1.016,-0.108 -1.46,-0.326 C 13.368,10.733 12.98,10.445 12.651,10.086 12.32,9.727 12.065,9.307 11.885,8.825 11.706,8.343 11.616,7.839 11.616,7.31 V 0 h -2.55 v 7.707 c 0,1.227 -0.241,2.129 -0.723,2.705 -0.48,0.576 -1.174,0.864 -2.081,0.864 -0.699,0 -1.285,-0.151 -1.757,-0.453 C 4.032,10.52 3.65,10.129 3.358,9.647 3.065,9.166 2.856,8.614 2.734,7.99 2.611,7.366 2.551,6.744 2.551,6.12 V 0 Z"
             style="fill:#00768c;fill-opacity:1;fill-rule:nonzero;stroke:none"
             id="path276"
             inkscape:connector-curvature="0" />
        </g>
        <g
           id="g278"
           transform="translate(898.4993,3728.4272)">
          <path
             d="m 0,0 c -0.152,-0.17 -0.379,-0.387 -0.68,-0.652 -0.302,-0.265 -0.695,-0.519 -1.176,-0.764 -0.482,-0.247 -1.049,-0.459 -1.701,-0.638 -0.651,-0.18 -1.392,-0.269 -2.223,-0.269 -1.02,0 -1.956,0.17 -2.806,0.51 -0.849,0.339 -1.577,0.821 -2.181,1.444 -0.605,0.624 -1.073,1.37 -1.402,2.239 -0.331,0.868 -0.497,1.831 -0.497,2.89 0,0.964 0.161,1.865 0.482,2.705 0.322,0.841 0.774,1.567 1.361,2.182 0.584,0.614 1.279,1.1 2.081,1.459 0.804,0.359 1.686,0.539 2.65,0.539 1.133,0 2.106,-0.218 2.918,-0.652 0.812,-0.435 1.477,-1.011 1.998,-1.728 C -0.657,8.547 -0.274,7.725 -0.029,6.8 0.216,5.875 0.34,4.911 0.34,3.91 h -10.399 c 0.019,-0.586 0.146,-1.124 0.382,-1.615 0.237,-0.492 0.553,-0.917 0.95,-1.275 0.396,-0.36 0.85,-0.643 1.36,-0.85 0.51,-0.208 1.049,-0.312 1.614,-0.312 1.115,0 2.032,0.188 2.75,0.567 0.717,0.377 1.236,0.746 1.558,1.104 z M -2.295,5.808 C -2.371,6.828 -2.73,7.697 -3.372,8.415 -4.015,9.132 -4.921,9.491 -6.092,9.491 -6.697,9.491 -7.24,9.387 -7.722,9.18 -8.202,8.972 -8.614,8.698 -8.953,8.358 -9.294,8.018 -9.558,7.625 -9.747,7.182 -9.937,6.739 -10.04,6.279 -10.059,5.808 Z"
             style="fill:#00768c;fill-opacity:1;fill-rule:nonzero;stroke:none"
             id="path280"
             inkscape:connector-curvature="0" />
        </g>
        <g
           id="g282"
           transform="translate(901.6725,3726.5005)">
          <path
             d="m 0,0 v 11.814 0.525 c 0,0.18 -0.01,0.458 -0.029,0.836 h 2.437 l 0.085,-1.983 c 0.169,0.226 0.377,0.476 0.623,0.751 0.246,0.273 0.548,0.523 0.907,0.75 0.359,0.227 0.779,0.415 1.26,0.567 0.482,0.15 1.025,0.226 1.63,0.226 1.718,0 2.994,-0.501 3.825,-1.502 0.831,-1.001 1.246,-2.36 1.246,-4.08 V 0 H 9.435 v 7.707 c 0,1.227 -0.265,2.129 -0.794,2.705 -0.529,0.576 -1.275,0.864 -2.238,0.864 -0.737,0 -1.351,-0.151 -1.841,-0.453 C 4.07,10.52 3.679,10.129 3.386,9.647 3.092,9.166 2.88,8.617 2.748,8.004 2.616,7.39 2.549,6.761 2.549,6.12 V 0 Z"
             style="fill:#00768c;fill-opacity:1;fill-rule:nonzero;stroke:none"
             id="path284"
             inkscape:connector-curvature="0" />
        </g>
        <g
           id="g286"
           transform="translate(918.2183,3737.5503)">
          <path
             d="M 0,0 H -2.379 V 2.125 H 0 V 6.432 H 2.549 V 2.125 H 6.403 V 0 H 2.549 v -6.488 c 0,-1.058 0.166,-1.785 0.497,-2.182 0.33,-0.396 0.797,-0.595 1.402,-0.595 0.491,0 0.897,0.075 1.218,0.226 0.322,0.152 0.643,0.379 0.963,0.681 l 1.162,-1.559 c -0.548,-0.529 -1.109,-0.912 -1.685,-1.147 -0.577,-0.236 -1.262,-0.354 -2.055,-0.354 -1.397,0 -2.422,0.377 -3.074,1.133 C 0.326,-9.529 0,-8.348 0,-6.744 Z"
             style="fill:#00768c;fill-opacity:1;fill-rule:nonzero;stroke:none"
             id="path288"
             inkscape:connector-curvature="0" />
        </g>
      </g>
    </g>
  </g>
</svg>
